<svg xmlns="http://www.w3.org/2000/svg" viewBox="0 0 432 432"><path fill="#4D494D" d="M225.9 341.1s-7.3.9-9.8.9-9.8-.9-9.8-.9l-1.3-12.2h22.1l-1.2 12.2z"/><path fill="#333030" d="M225.9 341.1s-7.3-.4-9.8-.4-9.8.4-9.8.4l-1.3-12.2h22.1l-1.2 12.2z"/><path fill="#7D3B61" d="M275.9 331.4H156.4c-2.4 0-4.2-1.9-4.2-4.2V164.5c0-2.4 1.9-4.2 4.2-4.2H276c2.4 0 4.2 1.9 4.2 4.2v162.7c0 2.2-1.9 4.2-4.3 4.2z"/><path fill="#9E5E8A" d="M277.2 169.7H155c-1.6 0-2.9-1.3-2.9-2.9V92.2c0-1.6 1.3-2.9 2.9-2.9h122.2c1.6 0 2.9 1.3 2.9 2.9v74.5c.1 1.7-1.2 3-2.9 3z"/><path fill="#A9618F" d="M276.9 331.3H155.4c-2.3 0-4.1-1.8-4.1-4.1V176.9c0-2.3 1.8-4.1 4.1-4.1h121.5c2.3 0 4.1 1.8 4.1 4.1v150.3c0 2.2-1.9 4.1-4.1 4.1z"/><path fill="#333030" d="M271.8 321.7H160.5c-2.1 0-3.8-1.7-3.8-3.8V248c0-2.1 1.7-3.8 3.8-3.8h111.2c2.1 0 3.8 1.7 3.8 3.8v70c.1 2-1.7 3.7-3.7 3.7zM156.7 163.8v-63.7c0-2.8 2.3-5.1 5.1-5.1h108.8c2.8 0 5.1 2.3 5.1 5.1v63.7h-119z"/><g><circle fill="#F00025" cx="216.6" cy="105.1" r="3.4"/><path fill="#333030" d="M166.9 187.3h-5.2l1.3-1.5c.4-.4.4-1.2 0-1.7l-.3-.3c-.4-.4-1.1-.4-1.6 0l-3.7 3.7c-.2.2-.3.5-.3.8 0 .3.1.6.3.8l3.7 3.7c.4.4 1.1.4 1.6 0l.3-.3c.4-.4.4-1 0-1.4l-1.4-1.3h5.4c.7 0 1.3-.5 1.3-1.3-.1-.7-.7-1.2-1.4-1.2zM273.9 187.3h-5.2l1.3-1.5c.4-.4.4-1.2 0-1.7l-.3-.3c-.4-.4-1.1-.4-1.6 0l-3.7 3.7c-.2.2-.3.5-.3.8 0 .3.1.6.3.8l3.7 3.7c.4.4 1.1.4 1.6 0l.3-.3c.4-.4.4-1 0-1.4l-1.4-1.3h5.4c.7 0 1.3-.5 1.3-1.3-.1-.7-.7-1.2-1.4-1.2z"/><g fill="#FFF"><circle cx="163.4" cy="141.8" r="1.6"/><circle cx="178.4" cy="141.8" r="1.6"/></g><circle fill="#4D494D" cx="170.5" cy="126.7" r="11.3"/><circle fill="#D9D9D6" cx="170.4" cy="126.8" r="9.3"/><path fill="none" stroke="#4D494D" stroke-width="5" stroke-miterlimit="10" d="M181.4 126.8h-8"/><g fill="#FFF"><circle cx="193.8" cy="141.8" r="1.6"/><circle cx="208.7" cy="141.8" r="1.6"/></g><circle fill="#4D494D" cx="200.9" cy="126.7" r="11.3"/><circle fill="#D9D9D6" cx="200.7" cy="126.8" r="9.3"/><path fill="none" stroke="#4D494D" stroke-width="5" stroke-miterlimit="10" d="M211.3 122.8l-7.5 2.9"/><g><g fill="#FFF"><circle cx="224.1" cy="141.8" r="1.6"/><circle cx="239.1" cy="141.8" r="1.6"/></g><circle fill="#4D494D" cx="231.2" cy="126.7" r="11.3"/><circle fill="#D9D9D6" cx="231.1" cy="126.8" r="9.3"/><path fill="none" stroke="#4D494D" stroke-width="5" stroke-miterlimit="10" d="M242.1 124.6l-7.8 1.6"/></g><g><circle fill="#4D494D" cx="261.6" cy="126.7" r="11.3"/><circle fill="#D9D9D6" cx="261.7" cy="126.8" r="9.3"/><path fill="none" stroke="#4D494D" stroke-width="5" stroke-miterlimit="10" d="M254.2 118.4l5.4 6"/></g><g fill="#FFF"><circle cx="254.2" cy="141.8" r="1.6"/><circle cx="269.2" cy="141.8" r="1.6"/></g></g></svg>