<svg xmlns="http://www.w3.org/2000/svg" viewBox="0 0 1224 792"><path fill="#4D494D" d="M636.3 702.3s-17.9 2.1-23.9 2.1-23.9-2.1-23.9-2.1l-3.1-29.9h54l-3.1 29.9z"/><path fill="#333030" d="M636.3 702.3s-17.9-1-23.9-1-23.9 1-23.9 1l-3.1-29.9h54l-3.1 29.9z"/><path fill="#76A7D5" d="M758.6 678.6H466.1c-5.8 0-10.4-4.7-10.4-10.4V270.1c0-5.8 4.7-10.4 10.4-10.4h292.7c5.8 0 10.4 4.7 10.4 10.4v398.1c0 5.6-4.8 10.4-10.6 10.4z"/><path fill="#A5CAEB" d="M761.9 282.8H462.8c-3.9 0-7.1-3.2-7.1-7.1V93.2c0-3.9 3.2-7.1 7.1-7.1H762c3.9 0 7.1 3.2 7.1 7.1v182.4c.1 4-3.2 7.2-7.2 7.2z"/><path fill="#B6DDF5" d="M761 678.5H463.7c-5.6 0-10.1-4.5-10.1-10.1v-368c0-5.6 4.5-10.1 10.1-10.1h297.4c5.6 0 10.1 4.5 10.1 10.1v367.8c0 5.6-4.6 10.3-10.2 10.3z"/><path fill="#333030" d="M748.5 654.8H476.3c-5.1 0-9.3-4.1-9.3-9.3V474.4c0-5.2 4.2-9.3 9.3-9.3h272.2c5.2 0 9.3 4.1 9.3 9.3v171.2c0 5.1-4.2 9.2-9.3 9.2zM467 268.4V112.5c0-6.8 5.6-12.4 12.4-12.4h266.3c6.8 0 12.4 5.6 12.4 12.4v155.9H467z"/><g><circle fill="#F00025" cx="613.5" cy="124.8" r="8.2"/><path fill="#333030" d="M491.9 325.9h-12.8l3.2-3.7c1-1 1-3 0-4.1l-.7-.8c-1-1-2.8-1.1-3.8-.1 0 0-8.9 8.8-9.1 9l-.1.1c-.5.5-.8 1.2-.8 2 0 .7.2 1.4.8 2l9.1 9.1c1 1 2.8 1 3.8 0l.7-.7c1-1 1-2.4 0-3.4l-3.4-3.1h13.1c1.8 0 3.2-1.3 3.2-3.1 0-2-1.5-3.2-3.2-3.2zM753.8 325.9H741l3.2-3.7c1-1 1-3 0-4.1l-.7-.8c-1-1-2.8-1.1-3.8-.1 0 0-8.9 8.8-9.1 9l-.1.1c-.5.5-.8 1.2-.8 2 0 .7.2 1.4.8 2l9.1 9.1c1 1 2.8 1 3.8 0l.7-.7c1-1 1-2.4 0-3.4l-3.4-3.1h13.1c1.8 0 3.2-1.3 3.2-3.1 0-2-1.5-3.2-3.2-3.2z"/><g fill="#FFF"><circle cx="483.4" cy="214.7" r="3.9"/><circle cx="520" cy="214.7" r="3.9"/></g><circle fill="#4D494D" cx="500.8" cy="177.7" r="27.7"/><circle fill="#E9F0F4" cx="500.4" cy="177.8" r="22.8"/><path fill="none" stroke="#4D494D" stroke-width="5" stroke-miterlimit="10" d="M527.4 177.9h-19.6"/><g fill="#FFF"><circle cx="557.7" cy="214.7" r="3.9"/><circle cx="594.3" cy="214.7" r="3.9"/></g><circle fill="#4D494D" cx="575.1" cy="177.7" r="27.7"/><circle fill="#E9F0F4" cx="574.7" cy="177.9" r="22.8"/><path fill="none" stroke="#4D494D" stroke-width="5" stroke-miterlimit="10" d="M600.5 168.2l-18.3 7"/><g><g fill="#FFF"><circle cx="631.9" cy="214.7" r="3.9"/><circle cx="668.5" cy="214.7" r="3.9"/></g><circle fill="#4D494D" cx="649.3" cy="177.7" r="27.7"/><circle fill="#E9F0F4" cx="648.9" cy="177.8" r="22.8"/><path fill="none" stroke="#4D494D" stroke-width="5" stroke-miterlimit="10" d="M675.9 172.4l-19.1 4"/></g><g><circle fill="#4D494D" cx="723.6" cy="177.7" r="27.7"/><circle fill="#E9F0F4" cx="723.9" cy="178" r="22.8"/><path fill="none" stroke="#4D494D" stroke-width="5" stroke-miterlimit="10" d="M705.6 157.4l13.1 14.5"/></g><g fill="#FFF"><circle cx="705.6" cy="214.7" r="3.9"/><circle cx="742.2" cy="214.7" r="3.9"/></g></g></svg>