<svg xmlns="http://www.w3.org/2000/svg" viewBox="0 0 576 720"><path fill="#4D494D" d="M301.2 526.9s-9.7 1.1-13 1.1c-3.3 0-13-1.1-13-1.1l-1.7-16.3h29.4l-1.7 16.3z"/><path fill="#333030" d="M301.2 526.9s-9.7-.5-13-.5c-3.3 0-13 .5-13 .5l-1.7-16.3h29.4l-1.7 16.3z"/><path fill="#76A7D5" d="M367.7 514H208.6c-3.2 0-5.7-2.6-5.7-5.7V291.7c0-3.2 2.6-5.7 5.7-5.7h159.3c3.2 0 5.7 2.6 5.7 5.7v216.6c-.1 3.1-2.7 5.7-5.9 5.7z"/><path fill="#A5CAEB" d="M369.5 298.6H206.8c-2.1 0-3.9-1.7-3.9-3.9v-99.3c0-2.1 1.7-3.9 3.9-3.9h162.8c2.1 0 3.9 1.7 3.9 3.9v99.3c0 2.2-1.8 3.9-4 3.9z"/><path fill="#B6DDF5" d="M369.1 514H207.3c-3 0-5.5-2.4-5.5-5.5V308.2c0-3 2.4-5.5 5.5-5.5h161.8c3 0 5.5 2.4 5.5 5.5v200.2c0 3-2.5 5.6-5.5 5.6z"/><path fill="#333030" d="M362.3 501.1H214.1c-2.8 0-5.1-2.2-5.1-5.1v-93.1c0-2.8 2.3-5.1 5.1-5.1h148.1c2.8 0 5.1 2.2 5.1 5.1v93.2c0 2.7-2.3 5-5 5zM209.1 290.8V206c0-3.7 3-6.7 6.7-6.7h144.9c3.7 0 6.7 3 6.7 6.7v84.8H209.1z"/><circle fill="#F00025" cx="288.8" cy="212.7" r="4.5"/><path fill="#333030" d="M222.6 322.1h-7l1.7-2c.5-.5.5-1.6 0-2.2l-.4-.4c-.5-.5-1.5-.6-2.1-.1 0 0-4.8 4.8-5 4.9l-.1.1c-.3.3-.4.7-.4 1.1 0 .4.1.8.4 1.1l5 5c.5.5 1.5.5 2.1 0l.4-.4c.5-.5.5-1.3 0-1.9l-1.9-1.7h7.1c1 0 1.7-.7 1.7-1.7.3-1.1-.6-1.8-1.5-1.8zm142.5 0h-7l1.7-2c.5-.5.5-1.6 0-2.2l-.4-.4c-.5-.5-1.5-.6-2.1-.1 0 0-4.8 4.8-5 4.9l-.1.1c-.3.3-.4.7-.4 1.1 0 .4.1.8.4 1.1l5 5c.5.5 1.5.5 2.1 0l.4-.4c.5-.5.5-1.3 0-1.9l-1.9-1.7h7.1c1 0 1.7-.7 1.7-1.7.3-1.1-.5-1.8-1.5-1.8z"/><circle fill="#FFF" cx="218" cy="261.6" r="2.1"/><circle fill="#FFF" cx="237.9" cy="261.6" r="2.1"/><circle fill="#4D494D" cx="227.5" cy="241.4" r="15.1"/><circle fill="#E9F0F4" cx="227.2" cy="241.5" r="12.4"/><path fill="none" stroke="#4D494D" stroke-width="5" stroke-miterlimit="10" d="M241.9 241.6h-10.7"/><circle fill="#FFF" cx="258.4" cy="261.6" r="2.1"/><circle fill="#FFF" cx="278.3" cy="261.6" r="2.1"/><circle fill="#4D494D" cx="267.9" cy="241.4" r="15.1"/><circle fill="#E9F0F4" cx="267.7" cy="241.6" r="12.4"/><path fill="none" stroke="#4D494D" stroke-width="5" stroke-miterlimit="10" d="M281.7 236.3l-10 3.8"/><g fill="#FFF"><circle cx="298.8" cy="261.6" r="2.1"/><circle cx="318.7" cy="261.6" r="2.1"/></g><circle fill="#4D494D" cx="308.3" cy="241.4" r="15.1"/><circle fill="#E9F0F4" cx="308.1" cy="241.5" r="12.4"/><path fill="none" stroke="#4D494D" stroke-width="5" stroke-miterlimit="10" d="M322.7 238.6l-10.4 2.2"/><circle fill="#4D494D" cx="348.7" cy="241.4" r="15.1"/><circle fill="#E9F0F4" cx="348.9" cy="241.6" r="12.4"/><path fill="none" stroke="#4D494D" stroke-width="5" stroke-miterlimit="10" d="M338.9 230.4l7.1 7.9"/><circle fill="#FFF" cx="338.9" cy="261.6" r="2.1"/><circle fill="#FFF" cx="358.8" cy="261.6" r="2.1"/></svg>
