<svg xmlns="http://www.w3.org/2000/svg" viewBox="0 0 432 432"><path fill="#4D494D" d="M225.9 341.2s-7.3.8-9.8.8-9.8-.8-9.8-.8L205 329h22.1l-1.2 12.2z"/><path fill="#333030" d="M225.9 341.2s-7.3-.4-9.8-.4-9.8.4-9.8.4L205 329h22.1l-1.2 12.2z"/><path fill="#76A7D5" d="M275.9 331.5H156.3c-2.4 0-4.3-2-4.3-4.3V164.5c0-2.4 2-4.3 4.3-4.3H276c2.4 0 4.3 2 4.3 4.3v162.7c-.1 2.3-2 4.3-4.4 4.3z"/><path fill="#A5CAEB" d="M277.2 169.7H155c-1.6 0-2.9-1.3-2.9-2.9V92.2c0-1.6 1.3-2.9 2.9-2.9h122.3c1.6 0 2.9 1.3 2.9 2.9v74.6c0 1.6-1.3 2.9-3 2.9z"/><path fill="#B6DDF5" d="M276.9 331.5H155.4c-2.3 0-4.1-1.8-4.1-4.1V176.9c0-2.3 1.8-4.1 4.1-4.1H277c2.3 0 4.1 1.8 4.1 4.1v150.4c0 2.2-1.9 4.2-4.2 4.2z"/><path fill="#333030" d="M271.8 321.8H160.5c-2.1 0-3.8-1.7-3.8-3.8v-70c0-2.1 1.7-3.8 3.8-3.8h111.3c2.1 0 3.8 1.7 3.8 3.8v70c0 2.1-1.8 3.8-3.8 3.8zm-115.1-158v-63.7c0-2.8 2.3-5 5-5h108.9c2.8 0 5 2.3 5 5v63.7H156.7z"/><circle fill="#F00025" cx="216.6" cy="105.2" r="3.4"/><path fill="#333030" d="M166.9 187.3h-5.3l1.3-1.5c.4-.4.4-1.2 0-1.7l-.3-.3c-.4-.4-1.1-.5-1.6-.1 0 0-3.6 3.6-3.8 3.7l-.1.1c-.2.2-.3.5-.3.8s.1.6.3.8l3.8 3.8c.4.4 1.1.4 1.6 0l.3-.3c.4-.4.4-1 0-1.4l-1.4-1.3h5.3c.8 0 1.3-.5 1.3-1.3.2-.7-.5-1.3-1.1-1.3zm107 0h-5.3l1.3-1.5c.4-.4.4-1.2 0-1.7l-.3-.3c-.4-.4-1.1-.5-1.6-.1 0 0-3.6 3.6-3.8 3.7l-.1.1c-.2.2-.3.5-.3.8s.1.6.3.8l3.8 3.8c.4.4 1.1.4 1.6 0l.3-.3c.4-.4.4-1 0-1.4l-1.4-1.3h5.3c.8 0 1.3-.5 1.3-1.3.3-.7-.3-1.3-1.1-1.3z"/><circle fill="#FFF" cx="163.4" cy="141.9" r="1.6"/><circle fill="#FFF" cx="178.4" cy="141.9" r="1.6"/><circle fill="#4D494D" cx="170.5" cy="126.7" r="11.3"/><circle fill="#E9F0F4" cx="170.3" cy="126.8" r="9.3"/><path fill="none" stroke="#4D494D" stroke-width="5" stroke-miterlimit="10" d="M181.4 126.9h-8"/><circle fill="#FFF" cx="193.8" cy="141.9" r="1.6"/><circle fill="#FFF" cx="208.7" cy="141.9" r="1.6"/><circle fill="#4D494D" cx="200.9" cy="126.7" r="11.3"/><circle fill="#E9F0F4" cx="200.7" cy="126.9" r="9.3"/><path fill="none" stroke="#4D494D" stroke-width="5" stroke-miterlimit="10" d="M211.3 122.9l-7.5 2.9"/><g fill="#FFF"><circle cx="224.1" cy="141.9" r="1.6"/><circle cx="239.1" cy="141.9" r="1.6"/></g><circle fill="#4D494D" cx="231.2" cy="126.7" r="11.3"/><circle fill="#E9F0F4" cx="231.1" cy="126.8" r="9.3"/><path fill="none" stroke="#4D494D" stroke-width="5" stroke-miterlimit="10" d="M242.1 124.6l-7.8 1.7"/><circle fill="#4D494D" cx="261.6" cy="126.7" r="11.3"/><circle fill="#E9F0F4" cx="261.7" cy="126.9" r="9.3"/><path fill="none" stroke="#4D494D" stroke-width="5" stroke-miterlimit="10" d="M254.2 118.4l5.3 5.9"/><circle fill="#FFF" cx="254.2" cy="141.9" r="1.6"/><circle fill="#FFF" cx="269.2" cy="141.9" r="1.6"/></svg>