<svg xmlns="http://www.w3.org/2000/svg" viewBox="0 0 1024 768"><path fill="#4D494D" d="M535.6 681s-17.4 2-23.2 2c-5.8 0-23.2-2-23.2-2l-3-29h52.4l-3 29z"/><path fill="#333030" d="M535.6 681s-17.4-1-23.2-1c-5.8 0-23.2 1-23.2 1l-3-29h52.4l-3 29z"/><path fill="#D8E1E5" d="M654.2 658H370.5c-5.6 0-10.1-4.6-10.1-10.1v-386c0-5.6 4.6-10.1 10.1-10.1h283.8c5.6 0 10.1 4.6 10.1 10.1v386c0 5.5-4.6 10.1-10.2 10.1z"/><path fill="#E4EEF2" d="M657.4 274.2H367.3c-3.8 0-6.9-3.1-6.9-6.9V90.4c0-3.8 3.1-6.9 6.9-6.9h290.1c3.8 0 6.9 3.1 6.9 6.9v176.9c.1 3.8-3.1 6.9-6.9 6.9zM656.5 657.9H368.2c-5.4 0-9.8-4.4-9.8-9.8V291.3c0-5.4 4.4-9.8 9.8-9.8h288.4c5.4 0 9.8 4.4 9.8 9.8V648c0 5.4-4.5 9.9-9.9 9.9z"/><path fill="#333030" d="M644.4 635h-264c-4.9 0-9-4-9-9V460c0-5 4.1-9 9-9h264c5 0 9 4 9 9v166c0 5-4.1 9-9 9zM371.4 260.3V109.1c0-6.6 5.4-12 12-12h258.2c6.6 0 12 5.4 12 12v151.2H371.4z"/><g><circle fill="#F00025" cx="513.5" cy="121" r="8"/><path fill="#00519B" d="M395.5 316h-12.4l3.1-3.6c1-1 1-2.9 0-4l-.7-.8c-1-1-2.7-1.1-3.7-.1 0 0-8.6 8.5-8.8 8.7l-.1.1c-.5.5-.8 1.2-.8 1.9s.2 1.4.8 1.9l8.8 8.8c1 1 2.7 1 3.7 0l.7-.7c1-1 1-2.3 0-3.3l-3.3-3h12.7c1.7 0 3.1-1.3 3.1-3s-1.4-2.9-3.1-2.9zM649.5 316h-12.4l3.1-3.6c1-1 1-2.9 0-4l-.7-.8c-1-1-2.7-1.1-3.7-.1 0 0-8.6 8.5-8.8 8.7l-.1.1c-.5.5-.8 1.2-.8 1.9s.2 1.4.8 1.9l8.8 8.8c1 1 2.7 1 3.7 0l.7-.7c1-1 1-2.3 0-3.3l-3.3-3h12.7c1.7 0 3.1-1.3 3.1-3s-1.4-2.9-3.1-2.9z"/><path fill="none" stroke="#FFF" stroke-width="4" stroke-miterlimit="10" d="M620.6 172.4l-32.9 8.4M620.6 172.4l-25.1 22.9M620.6 172.4l-12.1 31.8M620.6 172.4l-32.5-9.8M620.6 172.4l-22.9-25.1M620.6 172.4l-7.9-33.1M620.6 172.4l7.9-33.1M620.6 172.4l20.6-27.1"/><g fill="#FFF"><circle cx="387.3" cy="208.2" r="3.8"/><circle cx="422.8" cy="208.2" r="3.8"/></g><circle fill="#4D494D" cx="404.2" cy="172.3" r="26.9"/><circle fill="#00A9D8" cx="403.8" cy="172.4" r="22.1"/><path fill="none" stroke="#4D494D" stroke-width="5" stroke-miterlimit="10" d="M430 172.5h-19"/><g><g fill="#FFF"><circle cx="459.3" cy="208.2" r="3.8"/><circle cx="494.8" cy="208.2" r="3.8"/></g><circle fill="#4D494D" cx="476.2" cy="172.3" r="26.9"/><circle fill="#00A9D8" cx="475.8" cy="172.5" r="22.1"/><path fill="none" stroke="#4D494D" stroke-width="5" stroke-miterlimit="10" d="M500.8 163.1l-17.7 6.8"/></g><g><g fill="#FFF"><circle cx="531.3" cy="208.2" r="3.8"/><circle cx="566.8" cy="208.2" r="3.8"/></g><circle fill="#4D494D" cx="548.2" cy="172.3" r="26.9"/><circle fill="#00A9D8" cx="547.8" cy="172.4" r="22.1"/><path fill="none" stroke="#4D494D" stroke-width="5" stroke-miterlimit="10" d="M574 167.2l-18.6 3.9"/></g><g><circle fill="#4D494D" cx="620.2" cy="172.3" r="26.9"/><circle fill="#00A9D8" cx="620.5" cy="172.6" r="22.1"/><path fill="none" stroke="#4D494D" stroke-width="5" stroke-miterlimit="10" d="M602.8 152.6l12.7 14.1"/></g><path fill="#00519B" d="M396.5 342h-12.4l3.1-3.6c1-1 1-2.9 0-4l-.7-.8c-1-1-2.7-1.1-3.7-.1 0 0-8.6 8.5-8.8 8.7l-.1.1c-.5.5-.8 1.2-.8 1.9s.2 1.4.8 1.9l8.8 8.8c1 1 2.7 1 3.7 0l.7-.7c1-1 1-2.3 0-3.3l-3.3-3h12.7c1.7 0 3.1-1.3 3.1-3s-1.4-2.9-3.1-2.9zM650.5 342h-12.4l3.1-3.6c1-1 1-2.9 0-4l-.7-.8c-1-1-2.7-1.1-3.7-.1 0 0-8.6 8.5-8.8 8.7l-.1.1c-.5.5-.8 1.2-.8 1.9s.2 1.4.8 1.9l8.8 8.8c1 1 2.7 1 3.7 0l.7-.7c1-1 1-2.3 0-3.3l-3.3-3h12.7c1.7 0 3.1-1.3 3.1-3s-1.4-2.9-3.1-2.9zM651.7 367h-7.4l1.8-2.2c.6-.6.6-1.8 0-2.4l-.4-.5c-.6-.6-1.6-.6-2.2 0l-5.2 5.2c-.3.3-.5.7-.5 1.1 0 .4.1.8.5 1.1l5.3 5.3c.6.6 1.6.6 2.2 0l.4-.4c.6-.6.6-1.1 0-1.7l-2-1.5h7.6c1 0 1.9-1 1.9-2s-1-2-2-2z"/></g></svg>