<svg version="1.1" xmlns="http://www.w3.org/2000/svg" xmlns:xlink="http://www.w3.org/1999/xlink" x="0px" y="0px"
	 viewBox="0 0 1024 768" enable-background="new 0 0 1024 768" xml:space="preserve">
<g id="Layer_3">
	<path fill="#4D494D" d="M535.6,681c0,0-17.4,2-23.2,2c-5.8,0-23.2-2-23.2-2l-3-29h52.4L535.6,681z"/>
	<path fill="#333030" d="M535.6,681c0,0-17.4-1-23.2-1c-5.8,0-23.2,1-23.2,1l-3-29h52.4L535.6,681z"/>
	<path fill="#FF720B" d="M654.2,658H370.5c-5.6,0-10.1-4.6-10.1-10.1v-386c0-5.6,4.6-10.1,10.1-10.1h283.8c5.6,0,10.1,4.6,10.1,10.1
		v386C664.4,653.4,659.8,658,654.2,658z"/>
	<path fill="#FF8C2A" d="M657.4,274.2H367.3c-3.8,0-6.9-3.1-6.9-6.9V90.4c0-3.8,3.1-6.9,6.9-6.9h290.1c3.8,0,6.9,3.1,6.9,6.9v176.9
		C664.4,271.1,661.2,274.2,657.4,274.2z"/>
	<path fill="#FF8C2A" d="M656.5,657.9H368.2c-5.4,0-9.8-4.4-9.8-9.8V291.3c0-5.4,4.4-9.8,9.8-9.8h288.4c5.4,0,9.8,4.4,9.8,9.8v356.7
		C666.4,653.4,661.9,657.9,656.5,657.9z"/>
	<path fill="#333030" d="M644.4,635h-264c-4.9,0-9-4-9-9V460c0-5,4.1-9,9-9h264c5,0,9,4,9,9v166C653.4,631,649.3,635,644.4,635z"/>
	<path display="none" fill="#FF8C2A" d="M652.3,657.9H372.4c-6.6,0-12-5.4-12-12V95.5c0-6.6,5.4-12,12-12h279.9c6.6,0,12,5.4,12,12
		v550.3C664.4,652.4,658.9,657.9,652.3,657.9z"/>
</g>
<g id="Layer_4">
	<g id="Layer_2">
	</g>
	<g>
		<circle fill="#4D494D" cx="513.5" cy="223" r="31"/>
		<circle fill="#E7EFF4" cx="513.6" cy="223.5" r="25.5"/>
		<circle fill="#F00025" cx="513.5" cy="121" r="8"/>
		<g>
			<circle fill="#333030" cx="436.9" cy="160.2" r="46"/>
			<g>
				<path fill="#4D494D" d="M475.1,166c0.3-2,0.5-4,0.5-6.1c0-2.8-0.3-5.6-0.9-8.2c-3.1-2-6.4-4-7.3-6.1c-0.8-1.9-0.1-5.2,0.6-8.6
					c-3-4-6.7-7.5-10.9-10.1c-3.1,0.7-6.1,1.2-7.9,0.5c-1.7-0.7-3.4-3-5-5.6c-2.4-0.5-4.9-0.7-7.5-0.7c-2.9,0-5.7,0.3-8.4,0.9
					c-1.6,2.5-3.2,4.7-4.9,5.4c-1.7,0.7-4.4,0.2-7.3-0.4c-4.5,2.8-8.3,6.4-11.3,10.7c0.6,3.1,1.2,6,0.4,7.8
					c-0.8,1.9-3.6,3.8-6.4,5.6c-0.6,2.8-1,5.7-1,8.7c0,2.3,0.2,4.6,0.6,6.9c3.4,2.5,6,2.6,6.8,4.5c0.9,2.1-1.1,4.3-1.7,8.9
					c2.6,4.3,6.1,8.1,10.2,11c4.8-0.5,7.4-2.7,9.7-1.7c2.4,1,2.8,4.7,6,8.6c2.3,0.4,4.7,0.7,7.2,0.7c2.2,0,4.3-0.2,6.3-0.6
					c3.3-3.9,3.7-7.7,6.1-8.7c2.4-1,5.3,1.3,10.3,1.8c3.8-2.8,7-6.1,9.6-10.1c-0.5-4.9-2.7-7.6-1.8-9.9
					C468.4,169.1,471.4,168.9,475.1,166z"/>
			</g>
			<circle fill="#E7EFF4" cx="436.9" cy="160.2" r="25.5"/>
		</g>
		<g>
			<circle fill="#333030" cx="436.9" cy="107.7" r="4.3"/>
			<circle fill="#333030" cx="409.4" cy="210.7" r="4.3"/>
			<circle fill="#333030" cx="464.4" cy="210.7" r="4.3"/>
		</g>
		<g>
			<circle fill="#333030" cx="589.9" cy="160.2" r="46"/>
			<g>
				<path fill="#4D494D" d="M623.6,179.2c1-1.8,1.9-3.6,2.7-5.5c1-2.6,1.7-5.3,2.1-8c-2.2-3-4.6-6-4.6-8.3c-0.1-2.1,1.8-4.9,3.6-7.8
					c-1.3-4.8-3.6-9.3-6.6-13.3c-3.1-0.5-6.1-1-7.5-2.3c-1.4-1.3-2.1-4-2.7-7c-2.1-1.3-4.3-2.4-6.7-3.3c-2.7-1-5.4-1.7-8.1-2.1
					c-2.4,1.7-4.7,3.2-6.5,3.3c-1.8,0.1-4.2-1.3-6.7-2.9c-5.2,1-10.1,3.1-14.4,6c-0.5,3.1-1.1,6.1-2.4,7.5c-1.4,1.5-4.7,2.3-8,3
					c-1.6,2.4-3,5-4.1,7.8c-0.8,2.2-1.4,4.4-1.8,6.6c2.3,3.6,4.7,4.6,4.7,6.6c0.1,2.3-2.6,3.7-4.7,7.7c0.9,5,2.8,9.7,5.6,13.9
					c4.7,1.2,7.9,0.1,9.7,1.8c1.9,1.8,0.9,5.4,2.6,10.2c2,1.2,4.2,2.3,6.5,3.2c2,0.8,4.1,1.3,6.1,1.7c4.5-2.5,6.2-5.9,8.8-6
					c2.6-0.1,4.5,3.1,9,5.4c4.5-1.2,8.8-3.3,12.6-6c1.3-4.8,0.1-8.1,1.9-9.9C616.2,179.7,619.1,180.6,623.6,179.2z"/>
			</g>
			<circle fill="#E7EFF4" cx="589.9" cy="160.2" r="25.5"/>
		</g>
		<g>
			<circle fill="#333030" cx="589.9" cy="107.7" r="4.3"/>
			<circle fill="#333030" cx="562.4" cy="210.7" r="4.3"/>
			<circle fill="#333030" cx="617.4" cy="210.7" r="4.3"/>
		</g>
		<path fill="#333030" d="M395.5,315h-12.4l3.1-3.1c1-1,1-2.7,0-3.7l-0.7-0.7c-1-1-2.7-1-3.7,0c0,0-8.6,8.5-8.8,8.8l-0.1,0.1
			c-0.5,0.5-0.8,1.2-0.8,1.9c0,0.7,0.2,1.4,0.8,1.9l8.8,8.8c1,1,2.7,1,3.7,0l0.7-0.7c1-1,1-2.8,0-3.8l-3.3-3.5h12.7
			c1.7,0,3.1-1.3,3.1-3S397.2,315,395.5,315z"/>
		<path fill="#333030" d="M649.5,315h-12.4l3.1-3.1c1-1,1-2.7,0-3.7l-0.7-0.7c-1-1-2.7-1-3.7,0c0,0-8.6,8.5-8.8,8.8l-0.1,0.1
			c-0.5,0.5-0.8,1.2-0.8,1.9c0,0.7,0.2,1.4,0.8,1.9l8.8,8.8c1,1,2.7,1,3.7,0l0.7-0.7c1-1,1-2.8,0-3.8l-3.3-3.5h12.7
			c1.7,0,3.1-1.3,3.1-3S651.2,315,649.5,315z"/>
	</g>
	<g opacity="0.5">
		<path fill="#FFFFFF" d="M454.9,142.2c-10-10-26.1-10-36.1,0l18,18L454.9,142.2z"/>
		<path fill="#FFFFFF" d="M436.9,160.2l-18,18c10,10,26.1,10,36.1,0L436.9,160.2z"/>
	</g>
	<g opacity="0.5">
		<path fill="#FFFFFF" d="M607.9,142.2c-10-10-26.1-10-36.1,0l18,18L607.9,142.2z"/>
		<path fill="#FFFFFF" d="M589.9,160.2l-18,18c10,10,26.1,10,36.1,0L589.9,160.2z"/>
	</g>
	<g opacity="0.5">
		<path fill="#FFFFFF" d="M531.6,205.5c-10-10-26.1-10-36.1,0l18,18L531.6,205.5z"/>
		<path fill="#FFFFFF" d="M513.6,223.5l-18,18c10,10,26.1,10,36.1,0L513.6,223.5z"/>
	</g>
</g>
</svg>
