<svg xmlns="http://www.w3.org/2000/svg" viewBox="0 0 1024 768"><path fill="#4D494D" d="M535.6 681s-17.4 2-23.2 2c-5.8 0-23.2-2-23.2-2l-3-29h52.4l-3 29z"/><path fill="#333030" d="M535.6 681s-17.4-1-23.2-1c-5.8 0-23.2 1-23.2 1l-3-29h52.4l-3 29z"/><path fill="#35D379" d="M654.2 658H370.5c-5.6 0-10.1-4.6-10.1-10.1v-386c0-5.6 4.6-10.1 10.1-10.1h283.8c5.6 0 10.1 4.6 10.1 10.1v386c0 5.5-4.6 10.1-10.2 10.1z"/><path fill="#3DD87F" d="M657.4 274.2H367.3c-3.8 0-6.9-3.1-6.9-6.9V90.4c0-3.8 3.1-6.9 6.9-6.9h290.1c3.8 0 6.9 3.1 6.9 6.9v176.9c.1 3.8-3.1 6.9-6.9 6.9z"/><path fill="#41E58D" d="M656.5 657.9H368.2c-5.4 0-9.8-4.4-9.8-9.8V291.3c0-5.4 4.4-9.8 9.8-9.8h288.4c5.4 0 9.8 4.4 9.8 9.8V648c0 5.4-4.5 9.9-9.9 9.9z"/><path fill="#333030" d="M644.4 635h-264c-4.9 0-9-4-9-9V460c0-5 4.1-9 9-9h264c5 0 9 4 9 9v166c0 5-4.1 9-9 9z"/><g><circle fill="#4D494D" cx="513.5" cy="223" r="31"/><circle fill="#E7EFF4" cx="513.6" cy="223.5" r="25.5"/><circle fill="#F00025" cx="513.5" cy="121" r="8"/><circle fill="#333030" cx="436.9" cy="160.2" r="46"/><path fill="#4D494D" d="M475.1 166c.3-2 .5-4 .5-6.1 0-2.8-.3-5.6-.9-8.2-3.1-2-6.4-4-7.3-6.1-.8-1.9-.1-5.2.6-8.6-3-4-6.7-7.5-10.9-10.1-3.1.7-6.1 1.2-7.9.5-1.7-.7-3.4-3-5-5.6-2.4-.5-4.9-.7-7.5-.7-2.9 0-5.7.3-8.4.9-1.6 2.5-3.2 4.7-4.9 5.4-1.7.7-4.4.2-7.3-.4-4.5 2.8-8.3 6.4-11.3 10.7.6 3.1 1.2 6 .4 7.8-.8 1.9-3.6 3.8-6.4 5.6-.6 2.8-1 5.7-1 8.7 0 2.3.2 4.6.6 6.9 3.4 2.5 6 2.6 6.8 4.5.9 2.1-1.1 4.3-1.7 8.9 2.6 4.3 6.1 8.1 10.2 11 4.8-.5 7.4-2.7 9.7-1.7 2.4 1 2.8 4.7 6 8.6 2.3.4 4.7.7 7.2.7 2.2 0 4.3-.2 6.3-.6 3.3-3.9 3.7-7.7 6.1-8.7 2.4-1 5.3 1.3 10.3 1.8 3.8-2.8 7-6.1 9.6-10.1-.5-4.9-2.7-7.6-1.8-9.9 1.3-2.1 4.3-2.3 8-5.2z"/><circle fill="#E7EFF4" cx="436.9" cy="160.2" r="25.5"/><g fill="#333030"><circle cx="436.9" cy="107.7" r="4.3"/><circle cx="409.4" cy="210.7" r="4.3"/><circle cx="464.4" cy="210.7" r="4.3"/></g><circle fill="#333030" cx="589.9" cy="160.2" r="46"/><path fill="#4D494D" d="M623.6 179.2c1-1.8 1.9-3.6 2.7-5.5 1-2.6 1.7-5.3 2.1-8-2.2-3-4.6-6-4.6-8.3-.1-2.1 1.8-4.9 3.6-7.8-1.3-4.8-3.6-9.3-6.6-13.3-3.1-.5-6.1-1-7.5-2.3-1.4-1.3-2.1-4-2.7-7-2.1-1.3-4.3-2.4-6.7-3.3-2.7-1-5.4-1.7-8.1-2.1-2.4 1.7-4.7 3.2-6.5 3.3-1.8.1-4.2-1.3-6.7-2.9-5.2 1-10.1 3.1-14.4 6-.5 3.1-1.1 6.1-2.4 7.5-1.4 1.5-4.7 2.3-8 3-1.6 2.4-3 5-4.1 7.8-.8 2.2-1.4 4.4-1.8 6.6 2.3 3.6 4.7 4.6 4.7 6.6.1 2.3-2.6 3.7-4.7 7.7.9 5 2.8 9.7 5.6 13.9 4.7 1.2 7.9.1 9.7 1.8 1.9 1.8.9 5.4 2.6 10.2 2 1.2 4.2 2.3 6.5 3.2 2 .8 4.1 1.3 6.1 1.7 4.5-2.5 6.2-5.9 8.8-6 2.6-.1 4.5 3.1 9 5.4 4.5-1.2 8.8-3.3 12.6-6 1.3-4.8.1-8.1 1.9-9.9 1.5-1.8 4.4-.9 8.9-2.3z"/><circle fill="#E7EFF4" cx="589.9" cy="160.2" r="25.5"/><g fill="#333030"><circle cx="589.9" cy="107.7" r="4.3"/><circle cx="562.4" cy="210.7" r="4.3"/><circle cx="617.4" cy="210.7" r="4.3"/></g><path fill="#333030" d="M395.5 315h-12.4l3.1-3.1c1-1 1-2.7 0-3.7l-.7-.7c-1-1-2.7-1-3.7 0 0 0-8.6 8.5-8.8 8.8l-.1.1c-.5.5-.8 1.2-.8 1.9s.2 1.4.8 1.9l8.8 8.8c1 1 2.7 1 3.7 0l.7-.7c1-1 1-2.8 0-3.8l-3.3-3.5h12.7c1.7 0 3.1-1.3 3.1-3s-1.4-3-3.1-3zM649.5 315h-12.4l3.1-3.1c1-1 1-2.7 0-3.7l-.7-.7c-1-1-2.7-1-3.7 0 0 0-8.6 8.5-8.8 8.8l-.1.1c-.5.5-.8 1.2-.8 1.9s.2 1.4.8 1.9l8.8 8.8c1 1 2.7 1 3.7 0l.7-.7c1-1 1-2.8 0-3.8l-3.3-3.5h12.7c1.7 0 3.1-1.3 3.1-3s-1.4-3-3.1-3z"/><g opacity=".5" fill="#FFF"><path d="M454.9 142.2c-10-10-26.1-10-36.1 0l18 18 18.1-18zM436.9 160.2l-18 18c10 10 26.1 10 36.1 0l-18.1-18z"/></g><g opacity=".5" fill="#FFF"><path d="M607.9 142.2c-10-10-26.1-10-36.1 0l18 18 18.1-18zM589.9 160.2l-18 18c10 10 26.1 10 36.1 0l-18.1-18z"/></g><g opacity=".5" fill="#FFF"><path d="M531.5 205.5c-10-10-26.1-10-36.1 0l18 18 18.1-18zM513.5 223.5l-18 18c10 10 26.1 10 36.1 0l-18.1-18z"/></g></g></svg>