<svg xmlns="http://www.w3.org/2000/svg" viewBox="0 0 432 432"><path fill="#4D494D" d="M225.9 341.3s-7.3.9-9.8.9-9.8-.9-9.8-.9l-1.3-12.2h22.1l-1.2 12.2z"/><path fill="#333030" d="M225.9 341.3s-7.3-.4-9.8-.4-9.8.4-9.8.4l-1.3-12.2h22.1l-1.2 12.2z"/><path fill="#EDBE4B" d="M275.9 331.6H156.3c-2.4 0-4.3-1.9-4.3-4.3V164.5c0-2.4 1.9-4.3 4.3-4.3H276c2.4 0 4.3 1.9 4.3 4.3v162.8c0 2.3-2 4.3-4.4 4.3z"/><path fill="#F9CE5C" d="M277.3 169.7H154.9c-1.6 0-2.9-1.3-2.9-2.9V92.1c0-1.6 1.3-2.9 2.9-2.9h122.4c1.6 0 2.9 1.3 2.9 2.9v74.6c.1 1.7-1.3 3-2.9 3z"/><path fill="#F9D76E" d="M276.9 331.5H155.3c-2.3 0-4.1-1.8-4.1-4.1V176.9c0-2.3 1.8-4.1 4.1-4.1H277c2.3 0 4.1 1.8 4.1 4.1v150.4c0 2.3-1.9 4.2-4.2 4.2z"/><path fill="#333030" d="M271.8 321.9H160.5c-2.1 0-3.8-1.7-3.8-3.8v-70c0-2.1 1.7-3.8 3.8-3.8h111.3c2.1 0 3.8 1.7 3.8 3.8v70c0 2.1-1.7 3.8-3.8 3.8z"/><circle fill="#4D494D" cx="216.6" cy="148.1" r="13.1"/><circle fill="#E7EFF4" cx="216.6" cy="148.3" r="10.8"/><circle fill="#F00025" cx="216.6" cy="105.1" r="3.4"/><circle fill="#333030" cx="184.3" cy="121.6" r="19.4"/><path fill="#4D494D" d="M200.4 124c.1-.9.2-1.7.2-2.6 0-1.2-.1-2.4-.4-3.5-1.3-.9-2.7-1.7-3.1-2.6-.3-.8 0-2.2.2-3.6-1.3-1.7-2.8-3.1-4.6-4.3-1.3.3-2.6.5-3.3.2-.7-.3-1.4-1.3-2.1-2.4-1-.2-2.1-.3-3.1-.3-1.2 0-2.4.1-3.6.4-.7 1.1-1.3 2-2.1 2.3-.7.3-1.8.1-3.1-.2-1.9 1.2-3.5 2.7-4.8 4.5.2 1.3.5 2.5.2 3.3-.3.8-1.5 1.6-2.7 2.4-.2 1.2-.4 2.4-.4 3.7 0 1 .1 1.9.2 2.9 1.4 1.1 2.5 1.1 2.9 1.9.4.9-.4 1.8-.7 3.8 1.1 1.8 2.6 3.4 4.3 4.6 2-.2 3.1-1.1 4.1-.7 1 .4 1.2 2 2.5 3.6 1 .2 2 .3 3 .3.9 0 1.8-.1 2.7-.2 1.4-1.6 1.6-3.2 2.6-3.7 1-.4 2.2.5 4.3.8 1.6-1.2 2.9-2.6 4-4.3-.2-2.1-1.1-3.2-.8-4.2.8-.8 2-.8 3.6-2.1z"/><circle fill="#E7EFF4" cx="184.3" cy="121.6" r="10.8"/><g fill="#333030"><circle cx="184.3" cy="99.5" r="1.8"/><circle cx="172.7" cy="142.9" r="1.8"/><circle cx="195.9" cy="142.9" r="1.8"/></g><circle fill="#333030" cx="248.8" cy="121.6" r="19.4"/><path fill="#4D494D" d="M263.1 129.6c.4-.8.8-1.5 1.1-2.3.4-1.1.7-2.2.9-3.4-.9-1.3-1.9-2.5-1.9-3.5 0-.9.8-2.1 1.5-3.3-.5-2-1.5-3.9-2.8-5.6-1.3-.2-2.6-.4-3.1-1-.6-.5-.9-1.7-1.1-2.9-.9-.5-1.8-1-2.8-1.4-1.1-.4-2.3-.7-3.4-.9-1 .7-2 1.3-2.7 1.4-.8 0-1.8-.5-2.8-1.2-2.2.4-4.3 1.3-6.1 2.5-.2 1.3-.4 2.6-1 3.1-.6.6-2 1-3.4 1.3-.7 1-1.3 2.1-1.7 3.3-.3.9-.6 1.8-.8 2.8 1 1.5 2 1.9 2 2.8 0 1-1.1 1.6-2 3.2.4 2.1 1.2 4.1 2.4 5.8 2 .5 3.3 0 4.1.8.8.8.4 2.3 1.1 4.3.9.5 1.8 1 2.7 1.3.9.3 1.7.5 2.6.7 1.9-1.1 2.6-2.5 3.7-2.5s1.9 1.3 3.8 2.3c1.9-.5 3.7-1.4 5.3-2.5.5-2 0-3.4.8-4.2.5-.7 1.6-.3 3.6-.9z"/><circle fill="#E7EFF4" cx="248.8" cy="121.6" r="10.8"/><g fill="#333030"><circle cx="248.8" cy="99.5" r="1.8"/><circle cx="237.2" cy="142.9" r="1.8"/><circle cx="260.4" cy="142.9" r="1.8"/></g><path fill="#333030" d="M166.9 186.9h-5.2l1.3-1.3c.4-.4.4-1.1 0-1.6l-.3-.3c-.4-.4-1.1-.4-1.6 0l-3.7 3.7c-.2.2-.3.5-.3.8 0 .3.1.6.3.8l3.7 3.7c.4.4 1.1.4 1.6 0l.3-.3c.4-.4.4-1.2 0-1.6l-1.4-1.5h5.4c.7 0 1.3-.5 1.3-1.3s-.8-1.1-1.4-1.1zm107.1 0h-5.2l1.3-1.3c.4-.4.4-1.1 0-1.6l-.3-.3c-.4-.4-1.1-.4-1.6 0l-3.7 3.7c-.2.2-.3.5-.3.8 0 .3.1.6.3.8l3.7 3.7c.4.4 1.1.4 1.6 0l.3-.3c.4-.4.4-1.2 0-1.6l-1.4-1.5h5.4c.7 0 1.3-.5 1.3-1.3s-.7-1.1-1.4-1.1z"/><path fill="#FFF" d="M191.9 114c-4.2-4.2-11-4.2-15.2 0l7.6 7.6 7.6-7.6zm-7.6 7.6l-7.6 7.6c4.2 4.2 11 4.2 15.2 0l-7.6-7.6zM256.4 114c-4.2-4.2-11-4.2-15.2 0l7.6 7.6 7.6-7.6zm-7.6 7.6l-7.6 7.6c4.2 4.2 11 4.2 15.2 0l-7.6-7.6zM224.2 140.7c-4.2-4.2-11-4.2-15.2 0l7.6 7.6 7.6-7.6zm-7.6 7.6l-7.6 7.6c4.2 4.2 11 4.2 15.2 0l-7.6-7.6z" opacity=".5"/></svg>