<svg xmlns="http://www.w3.org/2000/svg" viewBox="0 0 1224 792"><path fill="#4D494D" d="M636.3 702.3s-17.9 2.1-23.9 2.1-23.9-2.1-23.9-2.1l-3.1-29.9h54l-3.1 29.9z"/><path fill="#333030" d="M636.3 702.3s-17.9-1-23.9-1-23.9 1-23.9 1l-3.1-29.9h54l-3.1 29.9z"/><path fill="#EDBE4B" d="M758.6 678.6H466.1c-5.8 0-10.4-4.7-10.4-10.4V270.1c0-5.8 4.7-10.4 10.4-10.4h292.7c5.8 0 10.4 4.7 10.4 10.4v398.1c0 5.6-4.8 10.4-10.6 10.4z"/><path fill="#F9CE5C" d="M761.9 282.8H462.8c-3.9 0-7.1-3.2-7.1-7.1V93.2c0-3.9 3.2-7.1 7.1-7.1H762c3.9 0 7.1 3.2 7.1 7.1v182.4c.1 4-3.2 7.2-7.2 7.2z"/><path fill="#F9D76E" d="M761 678.5H463.7c-5.6 0-10.1-4.5-10.1-10.1v-368c0-5.6 4.5-10.1 10.1-10.1h297.4c5.6 0 10.1 4.5 10.1 10.1v367.8c0 5.6-4.6 10.3-10.2 10.3z"/><path fill="#333030" d="M748.5 654.8H476.3c-5.1 0-9.3-4.1-9.3-9.3V474.4c0-5.2 4.2-9.3 9.3-9.3h272.2c5.2 0 9.3 4.1 9.3 9.3v171.2c0 5.1-4.2 9.2-9.3 9.2z"/><g><circle fill="#4D494D" cx="613.5" cy="230" r="32"/><circle fill="#E7EFF4" cx="613.6" cy="230.5" r="26.3"/><circle fill="#F00025" cx="613.5" cy="124.8" r="8.2"/><circle fill="#333030" cx="534.6" cy="165.2" r="47.4"/><path fill="#4D494D" d="M573.9 171.2c.3-2.1.5-4.1.5-6.3 0-2.9-.3-5.8-.9-8.5-3.2-2.1-6.6-4.1-7.5-6.3-.8-2-.1-5.4.6-8.9-3.1-4.1-6.9-7.7-11.2-10.4-3.2.7-6.3 1.2-8.1.5-1.8-.7-3.5-3.1-5.2-5.8-2.5-.5-5.1-.7-7.7-.7-3 0-5.9.3-8.7.9-1.7 2.6-3.3 4.8-5.1 5.6s-4.5.2-7.5-.4c-4.6 2.9-8.6 6.6-11.7 11 .6 3.2 1.2 6.2.4 8-.8 2-3.7 3.9-6.6 5.8-.6 2.9-1 5.9-1 9 0 2.4.2 4.7.6 7.1 3.5 2.6 6.2 2.7 7 4.6.9 2.2-1.1 4.4-1.8 9.2 2.7 4.4 6.3 8.4 10.5 11.3 4.9-.5 7.6-2.8 10-1.8 2.5 1 2.9 4.8 6.2 8.9 2.4.4 4.8.7 7.4.7 2.3 0 4.4-.2 6.5-.6 3.4-4 3.8-7.9 6.3-9 2.5-1 5.5 1.3 10.6 1.9 3.9-2.9 7.2-6.3 9.9-10.4-.5-5.1-2.8-7.8-1.9-10.2 1.5-2 4.6-2.2 8.4-5.2z"/><circle fill="#E7EFF4" cx="534.6" cy="165.2" r="26.3"/><g fill="#333030"><circle cx="534.6" cy="111.1" r="4.4"/><circle cx="506.2" cy="217.3" r="4.4"/><circle cx="562.9" cy="217.3" r="4.4"/></g><circle fill="#333030" cx="692.3" cy="165.2" r="47.4"/><path fill="#4D494D" d="M727.1 184.8c1-1.9 2-3.7 2.8-5.7 1-2.7 1.8-5.5 2.2-8.2-2.3-3.1-4.7-6.2-4.7-8.6-.1-2.2 1.9-5.1 3.7-8-1.3-5-3.7-9.6-6.8-13.7-3.2-.5-6.3-1-7.7-2.4-1.4-1.3-2.2-4.1-2.8-7.2-2.2-1.3-4.4-2.5-6.9-3.4-2.8-1-5.6-1.8-8.4-2.2-2.5 1.8-4.8 3.3-6.7 3.4-1.9.1-4.3-1.3-6.9-3-5.4 1-10.4 3.2-14.9 6.2-.5 3.2-1.1 6.3-2.5 7.7-1.4 1.5-4.8 2.4-8.2 3.1-1.7 2.5-3.1 5.2-4.2 8-.8 2.3-1.4 4.5-1.9 6.8 2.4 3.7 4.8 4.7 4.8 6.8.1 2.4-2.7 3.8-4.8 7.9.9 5.2 2.9 10 5.8 14.3 4.8 1.2 8.1.1 10 1.9 2 1.9.9 5.6 2.7 10.5 2.1 1.2 4.3 2.4 6.7 3.3 2.1.8 4.2 1.3 6.3 1.8 4.6-2.6 6.4-6.1 9.1-6.2 2.7-.1 4.6 3.2 9.3 5.6 4.6-1.2 9.1-3.4 13-6.2 1.3-4.9.1-8.4 2-10.2 1.4-1.8 4.3-.9 9-2.3z"/><circle fill="#E7EFF4" cx="692.3" cy="165.2" r="26.3"/><g fill="#333030"><circle cx="692.3" cy="111.1" r="4.4"/><circle cx="664" cy="217.3" r="4.4"/><circle cx="720.7" cy="217.3" r="4.4"/></g><path fill="#333030" d="M491.9 324.8h-12.8l3.2-3.2c1-1 1-2.8 0-3.8l-.7-.7c-1-1-2.8-1-3.8 0 0 0-8.9 8.8-9.1 9.1l-.1.1c-.5.5-.8 1.2-.8 2 0 .7.2 1.4.8 2l9.1 9.1c1 1 2.8 1 3.8 0l.7-.7c1-1 1-2.9 0-3.9l-3.4-3.6h13.1c1.8 0 3.2-1.3 3.2-3.1s-1.5-3.3-3.2-3.3zM753.8 324.8H741l3.2-3.2c1-1 1-2.8 0-3.8l-.7-.7c-1-1-2.8-1-3.8 0 0 0-8.9 8.8-9.1 9.1l-.1.1c-.5.5-.8 1.2-.8 2 0 .7.2 1.4.8 2l9.1 9.1c1 1 2.8 1 3.8 0l.7-.7c1-1 1-2.9 0-3.9l-3.4-3.6h13.1c1.8 0 3.2-1.3 3.2-3.1s-1.5-3.3-3.2-3.3z"/><g opacity=".5" fill="#FFF"><path d="M553.1 146.6c-10.3-10.3-26.9-10.3-37.2 0l18.6 18.6 18.6-18.6zM534.6 165.2L516 183.8c10.3 10.3 26.9 10.3 37.2 0l-18.6-18.6z"/></g><g opacity=".5" fill="#FFF"><path d="M710.9 146.6c-10.3-10.3-26.9-10.3-37.2 0l18.6 18.6 18.6-18.6zM692.3 165.2l-18.6 18.6c10.3 10.3 26.9 10.3 37.2 0l-18.6-18.6z"/></g><g opacity=".5" fill="#FFF"><path d="M632.2 211.9c-10.3-10.3-26.9-10.3-37.2 0l18.6 18.6 18.6-18.6zM613.6 230.5L595.1 249c10.3 10.3 26.9 10.3 37.2 0l-18.7-18.5z"/></g></g></svg>